<?xml version="1.0" encoding="UTF-8" standalone="no"?>
<!-- Created with Inkscape (http://www.inkscape.org/) -->

<svg
   version="1.1"
   id="svg2"
   width="964.19202"
   height="965.14532"
   viewBox="0 0 964.19202 965.14532"
   sodipodi:docname="logo STG vector.ai"
   xmlns:inkscape="http://www.inkscape.org/namespaces/inkscape"
   xmlns:sodipodi="http://sodipodi.sourceforge.net/DTD/sodipodi-0.dtd"
   xmlns="http://www.w3.org/2000/svg"
   xmlns:svg="http://www.w3.org/2000/svg">
  <defs
     id="defs6">
    <clipPath
       clipPathUnits="userSpaceOnUse"
       id="clipPath16">
      <path
         d="M 0,723.859 H 723.143 V 0 H 0 Z"
         id="path14" />
    </clipPath>
  </defs>
  <sodipodi:namedview
     id="namedview4"
     pagecolor="#ffffff"
     bordercolor="#000000"
     borderopacity="0.25"
     inkscape:showpageshadow="2"
     inkscape:pageopacity="0.0"
     inkscape:pagecheckerboard="0"
     inkscape:deskcolor="#d1d1d1" />
  <g
     id="g8"
     inkscape:groupmode="layer"
     inkscape:label="logo STG vector"
     transform="matrix(1.3333333,0,0,-1.3333333,0,965.14533)">
    <g
       id="g10">
      <g
         id="g12"
         clip-path="url(#clipPath16)">
        <g
           id="g18"
           transform="translate(27.0243,500.4754)">
          <path
             d="m 0,0 c 8.757,21.241 19.564,41.551 32.235,60.556 26.644,40.247 61.301,75.09 101.362,101.921 102.852,68.942 234.772,80.121 347.687,29.627 l 14.347,-6.336 -10.993,-10.993 C 407.312,97.636 330.172,20.496 252.846,-56.83 c -11.552,-11.552 -17.515,-18.446 -24.222,-33.352 -6.894,-15.279 -10.435,-31.676 -10.435,-48.073 0,-16.397 3.727,-34.098 11.18,-49.936 L 440.851,23.291 c 10.62,-7.081 20.868,-15.279 30.371,-24.782 36.52,-36.52 57.389,-84.965 57.389,-136.95 0,-67.078 -25.713,-104.53 -68.382,-147.199 L 326.073,-419.796 c 21.055,-0.559 42.483,1.118 63.165,5.218 34.471,6.894 67.637,20.309 97.263,39.315 32.793,21.055 60.37,48.072 81.984,80.493 10.248,15.279 19.005,31.489 26.086,48.631 19.937,48.259 26.086,101.549 17.701,153.162 -9.503,57.947 -37.079,111.982 -78.63,153.72 -9.317,9.316 -19.192,17.887 -29.44,25.527 19.005,19.005 38.011,38.197 57.016,57.202 29.626,-25.899 50.495,-46.209 74.159,-81.239 13.042,-19.564 24.222,-40.433 33.352,-62.606 8.944,-21.614 15.838,-44.159 20.496,-67.637 4.472,-22.918 6.894,-46.581 6.894,-70.618 0,-24.036 -2.422,-47.699 -6.894,-70.618 -4.658,-23.477 -11.552,-46.023 -20.496,-67.637 -9.13,-21.986 -20.31,-43.041 -33.352,-62.606 -26.832,-40.06 -61.489,-74.717 -101.922,-101.362 -19.005,-12.67 -39.315,-23.477 -60.556,-32.234 -21.614,-8.944 -44.16,-15.838 -67.637,-20.496 -22.918,-4.472 -46.582,-6.894 -70.618,-6.894 -13.975,0 -27.763,0.745 -41.551,2.422 -24.968,2.795 -49.749,8.385 -73.413,16.21 -10.621,3.541 -21.055,7.64 -31.676,12.298 l -14.347,6.335 c 76.767,76.953 153.348,154.093 230.114,231.046 28.136,28.135 46.955,43.973 46.955,93.164 0,17.142 -3.727,34.098 -11.18,49.935 L 228.065,-300.546 c -10.621,7.08 -20.869,15.279 -30.372,24.781 -36.52,36.521 -57.388,84.966 -57.388,136.951 0,43.787 14.719,87.388 43.973,123.163 6.521,7.825 13.229,13.974 20.31,21.055 L 342.097,142.54 c -21.055,0.373 -41.737,-1.117 -62.606,-5.217 -18.26,-3.54 -35.775,-8.943 -52.73,-16.024 -17.143,-7.08 -33.353,-15.838 -48.632,-26.086 C 145.708,73.599 118.691,46.023 97.636,13.229 88.506,-0.745 80.68,-15.651 74.345,-31.303 67.451,-48.259 62.047,-65.773 58.321,-84.034 54.78,-101.735 52.917,-119.995 52.917,-139 c 0,-15.652 1.304,-30.931 3.727,-45.464 2.422,-15.093 6.148,-29.812 10.993,-44.16 13.788,-40.992 36.893,-79.002 67.637,-109.56 9.316,-9.317 19.191,-17.888 29.44,-25.527 -16.77,-16.769 -33.353,-33.353 -50.123,-49.936 l -7.08,-7.08 c -9.875,8.757 -19.378,16.769 -28.694,26.272 -16.77,16.956 -32.049,35.216 -45.092,54.967 -13.043,19.564 -24.409,40.433 -33.352,62.419 -8.944,21.614 -15.838,44.16 -20.496,67.637 -13.788,70.059 -6.894,143.099 20.496,209.059"
             style="fill:#000000;fill-opacity:1;fill-rule:nonzero;stroke:none"
             id="path20" />
        </g>
      </g>
    </g>
  </g>
</svg>
